<?xml version="1.0" encoding="UTF-8" standalone="no"?>
<!-- Created with Inkscape (http://www.inkscape.org/) -->

<svg
   xmlns:dc="http://purl.org/dc/elements/1.1/"
   xmlns:cc="http://creativecommons.org/ns#"
   xmlns:rdf="http://www.w3.org/1999/02/22-rdf-syntax-ns#"
   xmlns:svg="http://www.w3.org/2000/svg"
   xmlns="http://www.w3.org/2000/svg"
   xmlns:sodipodi="http://sodipodi.sourceforge.net/DTD/sodipodi-0.dtd"
   xmlns:inkscape="http://www.inkscape.org/namespaces/inkscape"
   id="svg2"
   version="1.1"
   inkscape:version="0.91 r13725"
   xml:space="preserve"
   width="634.17999"
   height="93.807251"
   viewBox="0 0 634.17999 93.807251"
   sodipodi:docname="BGU.sig3.E.svg"><metadata
     id="metadata8"><rdf:RDF><cc:Work
         rdf:about=""><dc:format>image/svg+xml</dc:format><dc:type
           rdf:resource="http://purl.org/dc/dcmitype/StillImage" /><dc:title></dc:title></cc:Work></rdf:RDF></metadata><defs
     id="defs6" /><sodipodi:namedview
     pagecolor="#ffffff"
     bordercolor="#666666"
     borderopacity="1"
     objecttolerance="10"
     gridtolerance="10"
     guidetolerance="10"
     inkscape:pageopacity="0"
     inkscape:pageshadow="2"
     inkscape:window-width="1301"
     inkscape:window-height="744"
     id="namedview4"
     showgrid="false"
     fit-margin-top="0"
     fit-margin-left="0"
     fit-margin-right="0"
     fit-margin-bottom="0"
     inkscape:zoom="1.2788167"
     inkscape:cx="317.09"
     inkscape:cy="46.903625"
     inkscape:window-x="65"
     inkscape:window-y="24"
     inkscape:window-maximized="1"
     inkscape:current-layer="g10" /><g
     id="g10"
     inkscape:groupmode="layer"
     inkscape:label="BGU.sig3.E"
     transform="matrix(1.25,0,0,-1.25,-37.2405,224.06813)"><g
       id="g12"
       transform="translate(-2360,-2319.5198)"><path
         d="m 2447.5778,2445.7915 c 1.9241,0.5424 4.6389,1.9531 4.6389,5.3891 0,1.6638 -0.6875,3.2551 -1.9243,4.1231 -1.0652,0.7959 -2.5766,1.2297 -5.1543,1.2297 l -8.83,0 0,-1.0127 c 2.7482,-0.217 2.8862,-0.4338 2.8862,-3.436 l 0,-14.576 c 0,-3.0383 -0.2066,-3.2551 -3.1614,-3.4719 l 0,-1.0129 7.5938,0 c 2.7143,0 4.9819,0.4338 6.7346,1.4465 2.0268,1.1939 3.2983,3.0383 3.2983,5.4617 0,3.6169 -2.6802,5.2085 -6.0818,5.7512 l 0,0.1082 z m -5.4973,0.3254 0,7.0891 c 0,1.1939 0.1375,1.5916 0.4468,1.8086 0.3433,0.2168 1.0994,0.3613 1.9582,0.3613 3.2642,0 4.5696,-2.1699 4.5696,-4.6291 0,-3.0381 -1.5801,-4.6299 -5.3598,-4.6299 l -1.6148,0 z m 0,-1.1936 1.5803,0 c 4.1922,0 6.5972,-1.6275 6.5972,-5.3528 0,-3.7617 -2.5083,-5.2805 -5.3259,-5.3169 -2.1988,0 -2.8516,0.687 -2.8516,3.2915 l 0,7.3782 z"
         style="fill:#231f20;fill-opacity:1;fill-rule:evenodd;stroke:none"
         id="path14"
         inkscape:connector-curvature="0" /><path
         d="m 2466.8762,2436.8579 c -1.2368,-1.2295 -2.543,-1.8084 -3.917,-1.8084 -2.4051,0 -5.0852,2.0254 -5.1199,6.9443 4.0891,0.1446 8.384,0.5062 8.9683,0.6148 0.6184,0.1448 0.79,0.4338 0.79,1.1575 0,2.821 -2.3022,5.4978 -5.1538,5.4978 l -0.035,0 c -1.7522,0 -3.6076,-0.9768 -5.0163,-2.6402 -1.409,-1.6281 -2.2676,-3.834 -2.2676,-6.3298 0,-4.0872 2.4736,-7.7036 6.6999,-7.7036 1.0652,0 3.4361,0.6506 5.6009,3.5083 l -0.5498,0.7593 z m -5.2571,11.0676 c 1.8899,0 3.0581,-1.7361 3.0234,-3.617 0,-0.5061 -0.206,-0.7231 -0.8247,-0.7231 -1.9927,-0.073 -3.8823,-0.1086 -5.8064,-0.1086 0.5154,2.9294 2.0269,4.4487 3.5735,4.4487 l 0.034,0 z"
         style="fill:#231f20;fill-opacity:1;fill-rule:evenodd;stroke:none"
         id="path16"
         inkscape:connector-curvature="0" /><path
         d="m 2485.2805,2433.0239 0,0.9404 c -1.9927,0.217 -2.1643,0.3616 -2.1643,2.8213 l 0,6.9805 c 0,3.5083 -1.7181,5.4978 -4.4329,5.4978 -0.9961,0 -1.8894,-0.4344 -2.8516,-1.085 -0.8588,-0.6155 -1.6147,-1.158 -2.3022,-1.7004 l 0,2.8935 c -1.512,-0.7229 -3.1267,-1.1572 -4.7756,-1.4829 l 0,-0.8318 c 1.8549,-0.3613 2.0615,-0.4702 2.0615,-2.7846 l 0,-7.4871 c 0,-2.3875 -0.1721,-2.5679 -2.5083,-2.8213 l 0,-0.9404 7.456,0 0,0.9404 c -2.0276,0.217 -2.2336,0.3616 -2.2336,2.8213 l 0,8.4998 c 1.0308,0.9404 2.3708,1.8444 3.7451,1.8444 2.3023,0 3.127,-1.6277 3.127,-4.1233 l 0,-6.0402 c 0,-2.4959 -0.2408,-2.785 -2.2676,-3.002 l 0,-0.9404 7.1465,0 z"
         style="fill:#231f20;fill-opacity:1;fill-rule:evenodd;stroke:none"
         id="path18"
         inkscape:connector-curvature="0" /><path
         d="m 2491.4089,2442.1748 -5.7979,0 -0.3542,-1.9895 5.7724,0 0.3797,1.9895 z"
         style="fill:#231f20;fill-opacity:1;fill-rule:evenodd;stroke:none"
         id="path20"
         inkscape:connector-curvature="0" /><path
         d="m 2515.4577,2443.9106 -8.7275,0 0,-0.9763 c 3.3672,-0.2893 3.6076,-0.5066 3.6076,-3.1106 l 0,-3.0745 c 0,-1.5188 -0.4121,-1.9531 -1.0993,-2.3511 -0.7561,-0.3979 -1.8213,-0.6506 -2.9895,-0.6506 -6.6314,0 -9.5523,6.0762 -9.5523,11.2844 0,6.6912 3.8484,10.742 9.1055,10.742 3.2644,0 5.8757,-1.1936 6.7004,-5.606 l 0.9622,0.2168 c -0.2747,2.3875 -0.4468,4.3765 -0.5501,5.6426 -1.0993,0.2532 -3.7448,1.0486 -6.5971,1.0486 -6.7346,0 -13.125,-4.0867 -13.125,-12.4778 0,-7.1619 5.0505,-12.1167 12.6096,-12.1167 2.749,0 5.5664,0.7959 7.6968,1.3384 -0.2061,0.9763 -0.2403,2.1335 -0.2403,3.3996 l 0,3.0745 c 0,2.1338 0.1375,2.3147 2.199,2.6404 l 0,0.9763 z"
         style="fill:#231f20;fill-opacity:1;fill-rule:evenodd;stroke:none"
         id="path22"
         inkscape:connector-curvature="0" /><path
         d="m 2532.3181,2434.7961 -0.9622,0.072 c -1.3059,0.072 -1.5808,0.3256 -1.5808,2.1342 l 0,12.0804 c -0.5154,-0.1089 -1.3401,-0.2535 -2.302,-0.3616 -0.9963,-0.1453 -2.1648,-0.2534 -3.0923,-0.2898 l 0,-0.8316 1.2368,-0.217 c 1.1341,-0.1809 1.4434,-0.3979 1.4434,-2.3511 l 0,-8.4272 c -1.1687,-1.1939 -2.4741,-1.7363 -3.711,-1.7363 -1.5461,0 -3.0236,0.8681 -3.0236,4.051 l 0,4.883 c 0,2.4593 0,4.159 0.1027,5.2806 -0.5839,-0.1089 -1.5114,-0.2535 -2.4394,-0.398 -0.9275,-0.1089 -1.7522,-0.217 -2.4736,-0.2534 l 0,-0.8316 0.9619,-0.217 c 0.8589,-0.2168 1.1335,-0.3979 1.1335,-2.3152 l 0,-7.0888 c 0,-3.9058 1.9588,-5.3887 4.261,-5.3887 0.9275,0 1.6489,0.289 2.6455,0.9038 0.9622,0.615 1.7522,1.2661 2.543,1.8809 l 0,-2.5679 0.206,-0.2168 c 0.6526,0.1804 1.5115,0.4702 2.4048,0.7229 0.928,0.2534 1.8902,0.4702 2.6463,0.5788 l 0,0.9041 z"
         style="fill:#231f20;fill-opacity:1;fill-rule:evenodd;stroke:none"
         id="path24"
         inkscape:connector-curvature="0" /><path
         d="m 2538.4199,2445.4299 0,3.9421 c -1.6494,-0.7593 -3.1609,-1.1931 -4.845,-1.4829 l 0,-0.7952 c 1.9587,-0.2898 2.1309,-0.4343 2.1309,-2.8212 l 0,-7.4871 c 0,-2.3875 -0.2408,-2.6043 -2.3709,-2.8213 l 0,-0.9404 7.9026,0 0,0.9404 c -2.6455,0.217 -2.8176,0.4338 -2.8176,2.8213 l 0,6.6189 c 0.7561,2.0254 1.8554,3.1103 2.749,3.1103 0.5493,0 0.9619,-0.2168 1.4426,-0.7592 0.2068,-0.2176 0.5156,-0.2535 0.9282,-0.072 0.6526,0.325 1.0994,1.0486 1.0994,1.772 0,0.8681 -0.8247,1.8086 -1.9929,1.8086 -1.6494,0 -3.1267,-2.0254 -4.1575,-3.834 l -0.069,0 z"
         style="fill:#231f20;fill-opacity:1;fill-rule:evenodd;stroke:none"
         id="path26"
         inkscape:connector-curvature="0" /><path
         d="m 2549.5864,2452.4101 c 0.9966,0 1.7527,0.8682 1.7527,1.845 0,1.0852 -0.7561,1.8808 -1.7181,1.8808 -0.9282,0 -1.7524,-0.7956 -1.7524,-1.8808 0,-0.9768 0.8242,-1.845 1.7178,-1.845 z m 4.0202,-19.3862 0,0.9404 c -2.1989,0.217 -2.4394,0.4338 -2.4394,2.8936 l 0,12.4782 c -1.5122,-0.6511 -3.127,-1.1213 -4.8792,-1.4106 l 0,-0.8682 c 2.0616,-0.3254 2.1648,-0.5066 2.1648,-2.7124 l 0,-7.487 c 0,-2.4598 -0.2407,-2.6766 -2.4055,-2.8936 l 0,-0.9404 7.5593,0 z"
         style="fill:#231f20;fill-opacity:1;fill-rule:evenodd;stroke:none"
         id="path28"
         inkscape:connector-curvature="0" /><path
         d="m 2561.8061,2449.2639 c -3.1267,0 -7.5247,-2.7132 -7.5247,-8.6807 0,-4.0144 2.8177,-7.9929 7.5247,-7.9929 3.4019,0 7.4565,2.7847 7.4565,8.6076 0,4.4854 -3.1955,8.066 -7.4218,8.066 l -0.035,0 z m -0.3433,-1.1936 c 2.9891,0 4.6043,-3.4363 4.6043,-7.668 0,-4.9551 -1.7527,-6.6189 -3.8828,-6.6189 -2.8177,0 -4.7073,3.4001 -4.7073,7.957 0,4.0874 1.8555,6.3299 3.9512,6.3299 l 0.035,0 z"
         style="fill:#231f20;fill-opacity:1;fill-rule:evenodd;stroke:none"
         id="path30"
         inkscape:connector-curvature="0" /><path
         d="m 2587.3579,2433.0239 0,0.9404 c -1.993,0.217 -2.1643,0.3616 -2.1643,2.8213 l 0,6.9805 c 0,3.5083 -1.7181,5.4978 -4.4329,5.4978 -0.9961,0 -1.8897,-0.4344 -2.8516,-1.085 -0.8589,-0.6155 -1.615,-1.158 -2.3022,-1.7004 l 0,2.8935 c -1.5122,-0.7229 -3.127,-1.1572 -4.7759,-1.4829 l 0,-0.8318 c 1.855,-0.3613 2.0615,-0.4702 2.0615,-2.7846 l 0,-7.4871 c 0,-2.3875 -0.1718,-2.5679 -2.5083,-2.8213 l 0,-0.9404 7.4561,0 0,0.9404 c -2.0274,0.217 -2.2334,0.3616 -2.2334,2.8213 l 0,8.4998 c 1.0307,0.9404 2.3708,1.8444 3.7449,1.8444 2.3022,0 3.1269,-1.6277 3.1269,-4.1233 l 0,-6.0402 c 0,-2.4959 -0.2407,-2.785 -2.2676,-3.002 l 0,-0.9404 7.1468,0 z"
         style="fill:#231f20;fill-opacity:1;fill-rule:evenodd;stroke:none"
         id="path32"
         inkscape:connector-curvature="0" /><path
         d="m 2616.6784,2456.5334 -8.178,0 0,-1.0127 c 2.4056,-0.1804 3.127,-0.6147 3.333,-2.0254 0.1373,-1.1208 0.2408,-2.6404 0.2408,-5.9678 l 0,-2.7124 c 0,-5.9682 -1.5462,-10.3081 -6.4939,-10.3081 -4.261,0 -6.46,3.3272 -6.46,9.1507 l 0,8.2099 c 0,3.2552 0.2749,3.4727 2.9895,3.6531 l 0,1.0127 -8.8992,0 0,-1.0127 c 2.7142,-0.2529 2.9891,-0.3979 2.9891,-3.6531 l 0,-9.0056 c 0,-4.2319 0.9619,-6.9443 3.0234,-8.6084 1.5122,-1.2297 3.5049,-1.7363 5.4978,-1.7363 2.2681,0 4.5703,0.76 6.1504,2.4958 1.9929,2.2063 2.6116,5.2808 2.6116,9.5486 l 0,2.9658 c 0,3.3274 0.069,4.8826 0.1718,5.8597 0.1714,1.4829 0.9622,1.9887 3.0237,2.1335 l 0,1.0127 z"
         style="fill:#231f20;fill-opacity:1;fill-rule:evenodd;stroke:none"
         id="path34"
         inkscape:connector-curvature="0" /><path
         d="m 2631.8977,2433.0239 0,0.9404 c -1.993,0.217 -2.1644,0.3616 -2.1644,2.8213 l 0,6.9805 c 0,3.5083 -1.718,5.4978 -4.4328,5.4978 -0.9961,0 -1.8897,-0.4344 -2.8516,-1.085 -0.8589,-0.6155 -1.615,-1.158 -2.3022,-1.7004 l 0,2.8935 c -1.512,-0.7229 -3.127,-1.1572 -4.7757,-1.4829 l 0,-0.8318 c 1.8548,-0.3613 2.0616,-0.4702 2.0616,-2.7846 l 0,-7.4871 c 0,-2.3875 -0.1722,-2.5679 -2.5083,-2.8213 l 0,-0.9404 7.4558,0 0,0.9404 c -2.0274,0.217 -2.2334,0.3616 -2.2334,2.8213 l 0,8.4998 c 1.0307,0.9404 2.3708,1.8444 3.7451,1.8444 2.302,0 3.1267,-1.6277 3.1267,-4.1233 l 0,-6.0402 c 0,-2.4959 -0.2405,-2.785 -2.2676,-3.002 l 0,-0.9404 7.1468,0 z"
         style="fill:#231f20;fill-opacity:1;fill-rule:evenodd;stroke:none"
         id="path36"
         inkscape:connector-curvature="0" /><path
         d="m 2636.2148,2452.4101 c 0.9968,0 1.7527,0.8682 1.7527,1.845 0,1.0852 -0.7559,1.8808 -1.718,1.8808 -0.928,0 -1.7522,-0.7956 -1.7522,-1.8808 0,-0.9768 0.8242,-1.845 1.7175,-1.845 z m 4.0203,-19.3862 0,0.9404 c -2.1988,0.217 -2.4395,0.4338 -2.4395,2.8936 l 0,12.4782 c -1.512,-0.6511 -3.1269,-1.1213 -4.8791,-1.4106 l 0,-0.8682 c 2.0615,-0.3254 2.165,-0.5066 2.165,-2.7124 l 0,-7.487 c 0,-2.4598 -0.2407,-2.6766 -2.4055,-2.8936 l 0,-0.9404 7.5591,0 z"
         style="fill:#231f20;fill-opacity:1;fill-rule:evenodd;stroke:none"
         id="path38"
         inkscape:connector-curvature="0" /><path
         d="m 2656.0288,2448.8295 -6.1165,0 0,-0.904 c 1.9587,-0.2532 2.1648,-0.6511 1.6494,-2.3875 -0.7561,-2.3503 -1.8555,-5.6418 -3.0583,-8.6443 -0.9961,2.6045 -2.3709,6.4021 -3.2642,8.9341 -0.5496,1.5552 -0.4807,1.8445 1.3748,2.0977 l 0,0.904 -7.044,0 0,-0.904 c 1.8555,-0.2891 2.1301,-0.5425 2.9204,-2.6401 1.6153,-4.1956 3.1956,-8.3191 4.7417,-12.6592 l 0.928,0 c 1.8894,5.3891 3.7109,9.8379 4.845,12.5505 0.9275,2.1699 1.2368,2.4956 3.0237,2.7488 l 0,0.904 z"
         style="fill:#231f20;fill-opacity:1;fill-rule:evenodd;stroke:none"
         id="path40"
         inkscape:connector-curvature="0" /><path
         d="m 2667.4238,2436.8579 c -1.2368,-1.2295 -2.5427,-1.8084 -3.917,-1.8084 -2.4048,0 -5.0852,2.0254 -5.1196,6.9443 4.0888,0.1446 8.3837,0.5062 8.968,0.6148 0.6186,0.1448 0.79,0.4338 0.79,1.1575 0,2.821 -2.3022,5.4978 -5.1538,5.4978 l -0.035,0 c -1.7522,0 -3.6076,-0.9768 -5.0163,-2.6402 -1.4087,-1.6281 -2.2676,-3.834 -2.2676,-6.3298 0,-4.0872 2.4736,-7.7036 6.7,-7.7036 1.0654,0 3.4362,0.6506 5.601,3.5083 l -0.55,0.7593 z m -5.2571,11.0676 c 1.8901,0 3.0583,-1.7361 3.0237,-3.617 0,-0.5061 -0.2061,-0.7231 -0.8247,-0.7231 -1.9929,-0.073 -3.8826,-0.1086 -5.8067,-0.1086 0.5154,2.9294 2.0269,4.4487 3.5738,4.4487 l 0.034,0 z"
         style="fill:#231f20;fill-opacity:1;fill-rule:evenodd;stroke:none"
         id="path42"
         inkscape:connector-curvature="0" /><path
         d="m 2674.0773,2445.4299 0,3.9421 c -1.6494,-0.7593 -3.1611,-1.1931 -4.8449,-1.4829 l 0,-0.7952 c 1.9587,-0.2898 2.1306,-0.4343 2.1306,-2.8212 l 0,-7.4871 c 0,-2.3875 -0.2407,-2.6043 -2.3709,-2.8213 l 0,-0.9404 7.9026,0 0,0.9404 c -2.6455,0.217 -2.8174,0.4338 -2.8174,2.8213 l 0,6.6189 c 0.7559,2.0254 1.8555,3.1103 2.7488,3.1103 0.5496,0 0.9622,-0.2168 1.4429,-0.7592 0.2065,-0.2176 0.5154,-0.2535 0.928,-0.072 0.6528,0.325 1.0993,1.0486 1.0993,1.772 0,0.8681 -0.8247,1.8086 -1.9926,1.8086 -1.6495,0 -3.127,-2.0254 -4.1578,-3.834 l -0.069,0 z"
         style="fill:#231f20;fill-opacity:1;fill-rule:evenodd;stroke:none"
         id="path44"
         inkscape:connector-curvature="0" /><path
         d="m 2690.4548,2444.7788 c -0.1033,0.9045 -0.4812,3.038 -0.7561,3.8703 -0.7219,0.2891 -1.6494,0.6507 -3.0581,0.6148 -3.1609,0 -5.2224,-2.1341 -5.2224,-4.6658 0,-2.7852 2.2329,-3.9785 4.2949,-4.9912 1.7175,-0.8323 2.7143,-1.7002 2.7143,-3.2915 0,-1.5193 -1.1682,-2.532 -2.4397,-2.532 -2.0615,0 -3.6076,2.0977 -4.2263,4.4851 l -0.8933,-0.1809 c 0,-1.302 0.3093,-3.7617 0.5501,-4.2678 0.6181,-0.5425 2.1987,-1.2295 3.9509,-1.2295 2.749,0 5.6697,1.6997 5.6697,4.9912 0,2.4956 -1.7527,3.7976 -4.3296,4.9185 -1.5462,0.6877 -2.9202,1.5551 -2.9202,3.1467 0,1.4106 0.9275,2.4958 2.2329,2.4958 1.6841,0 2.8863,-1.4465 3.5396,-3.5808 l 0.8933,0.2171 z"
         style="fill:#231f20;fill-opacity:1;fill-rule:evenodd;stroke:none"
         id="path46"
         inkscape:connector-curvature="0" /><path
         d="m 2695.5615,2452.4101 c 0.9968,0 1.7529,0.8682 1.7529,1.845 0,1.0852 -0.7561,1.8808 -1.7183,1.8808 -0.9279,0 -1.7522,-0.7956 -1.7522,-1.8808 0,-0.9768 0.8243,-1.845 1.7176,-1.845 z m 4.0205,-19.3862 0,0.9404 c -2.199,0.217 -2.4397,0.4338 -2.4397,2.8936 l 0,12.4782 c -1.512,-0.6511 -3.1267,-1.1213 -4.8789,-1.4106 l 0,-0.8682 c 2.0615,-0.3254 2.1648,-0.5066 2.1648,-2.7124 l 0,-7.487 c 0,-2.4598 -0.2407,-2.6766 -2.4055,-2.8936 l 0,-0.9404 7.5593,0 z"
         style="fill:#231f20;fill-opacity:1;fill-rule:evenodd;stroke:none"
         id="path48"
         inkscape:connector-curvature="0" /><path
         d="m 2709.2248,2434.3259 -0.3093,0.9404 c -0.4812,-0.2532 -1.2713,-0.6147 -2.1301,-0.6147 -0.8594,0 -1.993,0.5424 -1.993,3.4724 l 0,9.2949 3.6763,0 c 0.4121,0.2534 0.5156,1.0491 0.2061,1.4106 l -3.8824,0 0,4.9554 -0.4812,0.072 -2.2334,-2.3874 0,-2.6402 -1.5803,0 -0.928,-1.0485 0.1375,-0.3621 2.3708,0 0,-10.5252 c 0,-2.8569 1.2027,-4.3034 3.3675,-4.3034 0.3093,0 0.8588,0.1445 1.4428,0.4702 l 2.3367,1.2654 z"
         style="fill:#231f20;fill-opacity:1;fill-rule:evenodd;stroke:none"
         id="path50"
         inkscape:connector-curvature="0" /><path
         d="m 2725.8889,2448.8295 -6.219,0 0,-0.904 c 1.9587,-0.2891 2.1987,-0.687 1.7866,-2.0618 -0.7212,-2.2783 -2.1987,-6.5466 -3.1609,-9.0058 l -3.1269,9.0781 c -0.4466,1.3384 -0.2747,1.7004 1.3056,1.9895 l 0,0.904 -6.9748,0 0,-0.904 c 1.8896,-0.2891 2.2331,-0.7593 2.955,-2.7488 1.0308,-2.5681 2.5769,-6.9446 3.951,-11.0676 0.206,-0.615 0.206,-1.0852 0.035,-1.6277 -0.1374,-0.4702 -0.4126,-1.2295 -1.0654,-2.4956 -0.79,-1.6275 -1.4773,-2.4956 -2.5422,-3.219 -0.5845,-0.398 -0.8933,-0.7231 -0.8933,-1.302 0,-0.8682 0.9961,-1.7363 1.9582,-1.7363 0.4812,0 0.8933,0.1811 1.0994,0.8681 0.4812,1.9532 1.2373,4.0152 3.5395,9.8015 2.3704,5.9683 3.4356,8.97 4.2949,10.8873 0.9275,2.0612 1.2369,2.351 3.0577,2.6401 l 0,0.904 z"
         style="fill:#231f20;fill-opacity:1;fill-rule:evenodd;stroke:none"
         id="path52"
         inkscape:connector-curvature="0" /><path
         d="m 2740.0075,2449.2639 c -3.1269,0 -7.5246,-2.7132 -7.5246,-8.6807 0,-4.0144 2.8176,-7.9929 7.5246,-7.9929 3.4016,0 7.4566,2.7847 7.4566,8.6076 0,4.4854 -3.1956,8.066 -7.4219,8.066 l -0.035,0 z m -0.3435,-1.1936 c 2.989,0 4.6045,-3.4363 4.6045,-7.668 0,-4.9551 -1.7527,-6.6189 -3.8828,-6.6189 -2.8176,0 -4.7073,3.4001 -4.7073,7.957 0,4.0874 1.8555,6.3299 3.9512,6.3299 l 0.034,0 z"
         style="fill:#231f20;fill-opacity:1;fill-rule:evenodd;stroke:none"
         id="path54"
         inkscape:connector-curvature="0" /><path
         d="m 2749.4445,2448.8295 -0.9279,-1.0485 0.1379,-0.3621 2.4048,0 0,-10.6697 c 0,-2.3869 -0.2405,-2.5679 -2.4395,-2.7849 l 0,-0.9404 8.1092,0 0,0.904 c -2.7149,0.2898 -2.9554,0.398 -2.9554,3.0747 l 0,10.4163 3.711,0 c 0.3779,0.2175 0.55,1.085 0.344,1.4106 l -4.055,0 0,1.4471 c -0.034,3.0739 0.344,4.8103 0.7906,5.4973 0.3781,0.6513 0.9274,1.0852 1.821,1.0852 1.134,0 2.096,-0.6873 2.7832,-1.3384 0.3088,-0.3616 0.6182,-0.3616 0.9275,-0.1082 0.3435,0.2891 0.55,0.5784 0.6528,0.868 0.1721,0.3979 0.1375,0.8681 -0.1714,1.2656 -0.55,0.6877 -1.5466,1.1936 -2.7148,1.2302 -1.3401,-0.1811 -2.5769,-0.8323 -3.7795,-1.9531 -1.8555,-1.6641 -2.4051,-3.436 -2.6458,-4.2319 -0.2405,-0.7959 -0.3779,-1.8445 -0.3779,-2.9659 l 0,-0.7959 -1.6148,0 z"
         style="fill:#231f20;fill-opacity:1;fill-rule:evenodd;stroke:none"
         id="path56"
         inkscape:connector-curvature="0" /><path
         d="m 2776.944,2434.3259 -0.3093,0.9404 c -0.4814,-0.2532 -1.2715,-0.6147 -2.1304,-0.6147 -0.8593,0 -1.9926,0.5424 -1.9926,3.4724 l 0,9.2949 3.6762,0 c 0.4121,0.2534 0.5154,1.0491 0.2061,1.4106 l -3.8823,0 0,4.9554 -0.4815,0.072 -2.2334,-2.3874 0,-2.6402 -1.5803,0 -0.928,-1.0485 0.1375,-0.3621 2.3708,0 0,-10.5252 c 0,-2.8569 1.2027,-4.3034 3.3675,-4.3034 0.3093,0 0.8588,0.1445 1.4428,0.4702 l 2.3369,1.2654 z"
         style="fill:#231f20;fill-opacity:1;fill-rule:evenodd;stroke:none"
         id="path58"
         inkscape:connector-curvature="0" /><path
         d="m 2794.8107,2433.0239 0,0.9404 c -2.0273,0.1812 -2.2675,0.398 -2.2675,2.7849 l 0,6.3296 c 0,4.3401 -1.9588,6.221 -4.7417,6.1851 -1.8555,0 -3.711,-1.3384 -4.9136,-2.6402 l 0,12.1526 c -1.3401,-0.4346 -3.4016,-1.0127 -5.051,-1.2661 l 0,-0.8318 c 2.268,-0.2173 2.3366,-0.3979 2.3366,-2.6765 l 0,-17.2527 c 0,-2.3869 -0.2751,-2.6037 -2.3366,-2.7849 l -0.034,-0.9404 7.2839,0 0,0.9404 c -2.0268,0.217 -2.1987,0.4702 -2.1987,2.7849 l 0,8.6084 c 0.9619,1.1572 2.2676,1.8445 3.5735,1.8445 2.3022,0 3.3669,-1.4829 3.3669,-4.4487 l 0,-6.0042 c 0,-2.3511 -0.2746,-2.5679 -2.2676,-2.7849 l 0,-0.9404 7.25,0 z"
         style="fill:#231f20;fill-opacity:1;fill-rule:evenodd;stroke:none"
         id="path60"
         inkscape:connector-curvature="0" /><path
         d="m 2807.4086,2436.8579 c -1.2368,-1.2295 -2.5427,-1.8084 -3.917,-1.8084 -2.4047,0 -5.0852,2.0254 -5.1196,6.9443 4.0889,0.1446 8.3838,0.5062 8.968,0.6148 0.6187,0.1448 0.7901,0.4338 0.7901,1.1575 0,2.821 -2.3023,5.4978 -5.1538,5.4978 l -0.035,0 c -1.7522,0 -3.6077,-0.9768 -5.0164,-2.6402 -1.4086,-1.6281 -2.2675,-3.834 -2.2675,-6.3298 0,-4.0872 2.4736,-7.7036 6.6999,-7.7036 1.0654,0 3.4363,0.6506 5.6011,3.5083 l -0.5501,0.7593 z m -5.257,11.0676 c 1.8901,0 3.0581,-1.7361 3.0236,-3.617 0,-0.5061 -0.206,-0.7231 -0.8247,-0.7231 -1.9929,-0.073 -3.8825,-0.1086 -5.8066,-0.1086 0.5154,2.9294 2.0269,4.4487 3.5735,4.4487 l 0.034,0 z"
         style="fill:#231f20;fill-opacity:1;fill-rule:evenodd;stroke:none"
         id="path62"
         inkscape:connector-curvature="0" /><path
         d="m 2838.0744,2456.5334 -8.1089,0 0,-1.0127 c 2.3709,-0.1448 3.1958,-0.6147 3.3672,-2.2424 0.1033,-1.0127 0.2405,-2.6765 0.2405,-6.0039 l 0,-8.8977 -0.1025,0 -14.3284,18.1567 -5.0852,0 0,-1.0127 c 1.6147,-0.1448 2.3708,-0.4338 3.0576,-1.3379 0.6186,-0.8682 0.6873,-1.0127 0.6873,-3.6536 l 0,-7.9565 c 0,-3.3279 -0.1026,-5.064 -0.2061,-6.1851 -0.1719,-1.7719 -1.0305,-2.2421 -3.0234,-2.3508 l 0,-1.0129 8.1433,0 0,1.0129 c -2.3369,0.1445 -3.127,0.5789 -3.2989,2.4231 -0.1027,1.0488 -0.206,2.7849 -0.206,6.1128 l 0,9.0781 0.069,0 14.6377,-18.9524 1.0649,0 0,14.576 c 0,3.3637 0.069,4.9912 0.2061,6.0761 0.1379,1.5918 0.9621,2.062 2.8862,2.1702 l 0,1.0127 z"
         style="fill:#231f20;fill-opacity:1;fill-rule:evenodd;stroke:none"
         id="path64"
         inkscape:connector-curvature="0" /><path
         d="m 2849.6296,2436.8579 c -1.2368,-1.2295 -2.5427,-1.8084 -3.917,-1.8084 -2.4048,0 -5.085,2.0254 -5.1196,6.9443 4.0888,0.1446 8.384,0.5062 8.968,0.6148 0.6186,0.1448 0.79,0.4338 0.79,1.1575 0,2.821 -2.302,5.4978 -5.1538,5.4978 l -0.034,0 c -1.7522,0 -3.6077,-0.9768 -5.0166,-2.6402 -1.4087,-1.6281 -2.2676,-3.834 -2.2676,-6.3298 0,-4.0872 2.4736,-7.7036 6.7,-7.7036 1.0654,0 3.4362,0.6506 5.601,3.5083 l -0.55,0.7593 z m -5.2571,11.0676 c 1.8901,0 3.0584,-1.7361 3.0237,-3.617 0,-0.5061 -0.2061,-0.7231 -0.8247,-0.7231 -1.9929,-0.073 -3.8826,-0.1086 -5.8067,-0.1086 0.5154,2.9294 2.0271,4.4487 3.5738,4.4487 l 0.034,0 z"
         style="fill:#231f20;fill-opacity:1;fill-rule:evenodd;stroke:none"
         id="path66"
         inkscape:connector-curvature="0" /><path
         d="m 2867.0844,2448.8295 c -1.2373,-0.1821 -2.9895,-0.3989 -4.6731,-0.4719 -0.9966,0.5806 -2.1301,0.9063 -3.2988,0.9063 l -0.034,0 c -2.6116,0 -6.1165,-1.8809 -6.1165,-6.0039 0,-2.46 1.4773,-4.1597 3.0239,-4.8467 -0.5498,-0.7237 -1.6494,-1.6641 -3.0239,-2.2066 -0.034,-0.3615 0.069,-0.9763 0.3779,-1.5188 0.4468,-0.76 1.3059,-1.5915 2.5428,-1.9895 -0.8247,-0.6506 -2.1648,-1.8086 -2.8521,-2.5315 -0.5154,-0.5424 -0.8242,-1.2302 -0.8242,-2.0253 0.034,-2.0621 2.1301,-4.4131 5.9438,-4.4131 4.5704,0 8.5901,3.5085 8.5901,7.1613 0,3.5447 -2.8176,4.2684 -4.9477,4.2684 -1.1341,0 -2.3709,-0.036 -3.6077,-0.036 -1.5461,0 -2.1648,0.687 -2.1648,1.4106 0,0.5061 0.5501,1.1572 1.0308,1.4829 0.55,-0.072 1.1682,-0.1811 1.7522,-0.1811 2.9209,0 6.0132,1.8791 6.0132,5.7773 0,1.2996 -0.378,2.4182 -1.0308,3.2129 l 1.9587,-0.1091 c 0.5494,0.2759 1.2369,1.2483 1.5462,1.8249 l -0.2061,0.2893 z m -8.3154,-0.6506 c 1.9582,0 3.2297,-2.0254 3.2297,-4.8831 0,-2.8571 -1.3401,-4.2678 -2.8515,-4.3042 -1.9241,0 -3.2303,2.0254 -3.2303,4.8467 0,2.8213 1.3401,4.3406 2.8177,4.3406 l 0.034,0 z m 0.7561,-15.5527 c 1.4429,0 2.4397,-0.1089 3.2983,-0.4702 0.9969,-0.4339 1.5808,-1.3384 1.5808,-2.5682 0,-2.2421 -1.6835,-4.0144 -4.9477,-4.0144 -2.543,0 -4.5357,1.4829 -4.5357,3.4361 0,1.0486 0.6873,2.0613 1.5806,2.8208 0.6182,0.5788 1.3743,0.7959 2.989,0.7959 l 0.035,0 z"
         style="fill:#231f20;fill-opacity:1;fill-rule:evenodd;stroke:none"
         id="path68"
         inkscape:connector-curvature="0" /><path
         d="m 2879.1665,2436.8579 c -1.2369,-1.2295 -2.543,-1.8084 -3.917,-1.8084 -2.4051,0 -5.0852,2.0254 -5.1199,6.9443 4.0891,0.1446 8.384,0.5062 8.968,0.6148 0.6187,0.1448 0.7903,0.4338 0.7903,1.1575 0,2.821 -2.3023,5.4978 -5.1538,5.4978 l -0.035,0 c -1.7522,0 -3.6077,-0.9768 -5.0163,-2.6402 -1.409,-1.6281 -2.2676,-3.834 -2.2676,-6.3298 0,-4.0872 2.4736,-7.7036 6.6999,-7.7036 1.0652,0 3.4361,0.6506 5.6009,3.5083 l -0.5498,0.7593 z m -5.2571,11.0676 c 1.8899,0 3.0581,-1.7361 3.0234,-3.617 0,-0.5061 -0.206,-0.7231 -0.8247,-0.7231 -1.9927,-0.073 -3.8823,-0.1086 -5.8064,-0.1086 0.5154,2.9294 2.0269,4.4487 3.5735,4.4487 l 0.034,0 z"
         style="fill:#231f20;fill-opacity:1;fill-rule:evenodd;stroke:none"
         id="path70"
         inkscape:connector-curvature="0" /><path
         d="m 2897.1364,2448.8295 -6.1164,0 0,-0.904 c 1.9587,-0.2532 2.1648,-0.6511 1.6496,-2.3875 -0.7561,-2.3503 -1.8557,-5.6418 -3.0583,-8.6443 -0.9961,2.6045 -2.3709,6.4021 -3.2642,8.9341 -0.5495,1.5552 -0.4809,1.8445 1.3745,2.0977 l 0,0.904 -7.0437,0 0,-0.904 c 1.8555,-0.2891 2.1302,-0.5425 2.9202,-2.6401 1.6155,-4.1956 3.1958,-8.3191 4.7417,-12.6592 l 0.928,0 c 1.8896,5.3891 3.7109,9.8379 4.8452,12.5505 0.9272,2.1699 1.2366,2.4956 3.0234,2.7488 l 0,0.904 z"
         style="fill:#231f20;fill-opacity:1;fill-rule:evenodd;stroke:none"
         id="path72"
         inkscape:connector-curvature="0" /><path
         d="m 2427.3864,2432.9873 c -7.6833,4.4299 -6.8244,12.6486 -2.3115,18.9738 l -5.2332,2.8011 c -6.6784,-4.6922 -7.2839,-15.7725 -2.7939,-21.7749 l 10.3386,0 z"
         style="fill:#f68712;fill-opacity:1;fill-rule:evenodd;stroke:none"
         id="path74"
         inkscape:connector-curvature="0" /><path
         d="m 2403.8603,2432.986 10.0703,0 c -2.6201,5.2785 -2.5566,12.2702 -0.1982,17.5771 3.1269,7.0366 12.8752,10.9304 12.6394,19.7964 -0.3128,11.7485 -11.947,23.0442 -21.7173,28.4148 7.0537,-13.7612 -32.1104,-30.4832 -1.1907,-46.2949 0,0 0.8924,2.417 1.6834,3.8537 0.727,1.3213 2.1425,3.2197 2.1425,3.2197 -18.5339,8.7383 1.7757,20.8484 0.306,34.023 4.6821,-5.0879 11.6508,-15.4783 10.9218,-22.561 -0.7224,-7.0188 -7.2202,-9.961 -10.9397,-15.2591 -3.7612,-5.3576 -4.3747,-15.0007 -3.7175,-22.771 z"
         style="fill:#f68712;fill-opacity:1;fill-rule:evenodd;stroke:none"
         id="path76"
         inkscape:connector-curvature="0" /><path
         d="m 2402.7238,2450.2868 c 0,0 -2.4289,1.147 -3.8974,2.0308 -2.1475,1.2925 -5.1868,3.7944 -5.1868,3.7944 2.2603,-8.0412 2.396,-17.5718 -3.8472,-23.126 l 11.7657,0 c -0.2137,6.7825 0.049,11.7112 1.1657,17.3008 z"
         style="fill:#f68712;fill-opacity:1;fill-rule:evenodd;stroke:none"
         id="path78"
         inkscape:connector-curvature="0" /></g></g></svg>